{"accessors" : [{"bufferView" : 0, "byteOffset" : 0, "componentType" : 5123, "count" : 2130, "type" : "SCALAR", "max" : [1950], "min" : [0]}, {"bufferView" : 1, "byteOffset" : 0, "componentType" : 5126, "count" : 1951, "type" : "VEC3", "max" : [0.9553644061088562, 1.0085639953613281, 0.9616190791130066], "min" : [-0.9469448924064636, -0.9227450489997864, -0.9339073896408081], "name" : "POSITION"}, {"bufferView" : 1, "byteOffset" : 12, "componentType" : 5126, "count" : 1951, "type" : "VEC2", "max" : [0.9886363744735718, 0.9972865581512451], "min" : [-6.40661601210013E-05, 0.5292595028877258], "name" : "TEXCOORD_0"}, {"bufferView" : 1, "byteOffset" : 20, "componentType" : 5126, "count" : 1951, "type" : "VEC3", "max" : [0.9875673055648804, 0.9910064935684204, 0.9873027801513672], "min" : [-0.9847347140312195, -0.9907523393630981, -0.9921256899833679], "name" : "NORMAL"}, {"bufferView" : 0, "byteOffset" : 4260, "componentType" : 5123, "count" : 5868, "type" : "SCALAR", "max" : [5506], "min" : [0]}, {"bufferView" : 2, "byteOffset" : 0, "componentType" : 5126, "count" : 5507, "type" : "VEC3", "max" : [1.4625632762908936, 1.8686795234680176, 1.449418067932129], "min" : [-1.4783334732055664, -1.0825936794281006, -1.3073781728744507], "name" : "POSITION"}, {"bufferView" : 2, "byteOffset" : 12, "componentType" : 5126, "count" : 5507, "type" : "VEC2", "max" : [1, 1], "min" : [0.011512302793562412, 0.527360200881958], "name" : "TEXCOORD_0"}, {"bufferView" : 2, "byteOffset" : 20, "componentType" : 5126, "count" : 5507, "type" : "VEC3", "max" : [0.9961761832237244, 0.9982050061225891, 0.9995900392532349], "min" : [-0.9986966252326965, -0.9999992847442627, -0.9992944002151489], "name" : "NORMAL"}, {"bufferView" : 0, "byteOffset" : 15996, "componentType" : 5123, "count" : 1308, "type" : "SCALAR", "max" : [1240], "min" : [0]}, {"bufferView" : 3, "byteOffset" : 0, "componentType" : 5126, "count" : 1241, "type" : "VEC3", "max" : [0.6168153285980225, 0.6241833567619324, 0.6986995935440063], "min" : [-0.6546691060066223, -0.7219254374504089, -0.6048886775970459], "name" : "POSITION"}, {"bufferView" : 3, "byteOffset" : 12, "componentType" : 5126, "count" : 1241, "type" : "VEC2", "max" : [0.9886363744735718, 1.0005228519439697], "min" : [-6.40661601210013E-05, 0.5292595028877258], "name" : "TEXCOORD_0"}, {"bufferView" : 3, "byteOffset" : 20, "componentType" : 5126, "count" : 1241, "type" : "VEC3", "max" : [0.9994940161705017, 0.9873277544975281, 0.987302839756012], "min" : [-0.9978910684585571, -0.9907522797584534, -0.9921802878379822], "name" : "NORMAL"}], "asset" : {"generator" : "Aspose.3D 23.4.0", "version" : "2.0"}, "buffers" : [{"uri" : "data:application/octet-stream;base64,", "byteLength" : 316420}], "bufferViews" : [{"buffer" : 0, "byteOffset" : 0, "byteLength" : 18612, "target" : 34963}, {"buffer" : 0, "byteOffset" : 18616, "byteLength" : 68160, "byteStride" : 32, "target" : 34962}, {"buffer" : 0, "byteOffset" : 86780, "byteLength" : 187776, "byteStride" : 32, "target" : 34962}, {"buffer" : 0, "byteOffset" : 274560, "byteLength" : 41856, "byteStride" : 32, "target" : 34962}], "meshes" : [{"primitives" : [{"attributes" : {"POSITION" : 1, "TEXCOORD_0" : 2, "NORMAL" : 3}, "indices" : 0, "mode" : 4}, {"attributes" : {"POSITION" : 5, "TEXCOORD_0" : 6, "NORMAL" : 7}, "indices" : 4, "mode" : 4}, {"attributes" : {"POSITION" : 9, "TEXCOORD_0" : 10, "NORMAL" : 11}, "indices" : 8, "mode" : 4}]}], "nodes" : [{"matrix" : [0.8915386136357988, 0, 0.46746595603572866, 0, 0, 1.0066605806350708, 0, 0, -0.46746595603572866, 0, 0.8915386136357988, 0, 0, 0.9046926498413086, 0.022957801818847656, 1], "mesh" : 0, "name" : "Total shell"}], "scene" : 0, "scenes" : [{"nodes" : [0]}]}